<svg width="30" height="30" viewBox="0 0 30 30" fill="none" xmlns="http://www.w3.org/2000/svg">
<ellipse cx="15" cy="15.2186" rx="15" ry="14.6869" fill="#049EFF"/>
<g clip-path="url(#clip0_1_9)">
<path d="M15 12.2705C13.3458 12.2705 12 13.587 12 15.2051C12 16.8233 13.3458 18.1398 15 18.1398C16.6542 18.1398 18 16.8233 18 15.2051C18 13.587 16.6543 12.2705 15 12.2705Z" fill="white"/>
<path d="M21.3878 8.95645C20.3481 7.93943 18.9712 7.37939 17.5105 7.37939H12.4895C11.0288 7.37939 9.65173 7.93943 8.61218 8.95645C7.57251 9.97336 7 11.3204 7 12.7493V17.6608C7 19.0898 7.57251 20.4368 8.61218 21.4538C9.65173 22.4708 11.0288 23.0308 12.4895 23.0308H17.5105C18.9712 23.0308 20.3483 22.4708 21.3878 21.4538C22.4274 20.4368 23 19.0898 23 17.6608V12.7493C23 11.3204 22.4274 9.97336 21.3878 8.95645ZM15 19.3472C12.6652 19.3472 10.7656 17.4891 10.7656 15.2051C10.7656 12.9211 12.6652 11.063 15 11.063C17.3348 11.063 19.2344 12.9211 19.2344 15.2051C19.2344 17.4891 17.3348 19.3472 15 19.3472ZM19.6909 11.2649C19.6038 11.3502 19.4828 11.3991 19.3595 11.3991C19.2361 11.3991 19.1154 11.3502 19.0282 11.2649C18.9407 11.1795 18.8907 11.0613 18.8907 10.9406C18.8907 10.8199 18.9407 10.7015 19.0282 10.6163C19.1154 10.5309 19.236 10.482 19.3595 10.482C19.4828 10.482 19.6038 10.5309 19.6909 10.6163C19.7782 10.7015 19.8282 10.8199 19.8282 10.9406C19.8282 11.0612 19.7782 11.1795 19.6909 11.2649Z" fill="white"/>
</g>
<defs>
<clipPath id="clip0_1_9">
<rect width="16" height="15.6514" fill="white" transform="translate(7 7.37939)"/>
</clipPath>
</defs>
</svg>
