<svg width="30" height="30" viewBox="0 0 30 30" fill="none" xmlns="http://www.w3.org/2000/svg">
<ellipse cx="15" cy="15.2186" rx="15" ry="14.6869" fill="#049EFF"/>
<path d="M23 9.55977C22.3678 9.83104 21.6942 10.0108 20.9919 10.0982C21.7144 9.67617 22.2658 9.01307 22.5251 8.21381C21.8514 8.60668 21.1077 8.88419 20.3151 9.03905C19.6754 8.37283 18.7638 7.96021 17.7693 7.96021C15.8398 7.96021 14.2864 9.49221 14.2864 11.3703C14.2864 11.6405 14.3098 11.9004 14.3672 12.1478C11.4697 12.0095 8.90594 10.6511 7.18362 8.58174C6.88294 9.09206 6.70656 9.67617 6.70656 10.305C6.70656 11.4857 7.32812 12.5323 8.25463 13.1383C7.69469 13.1279 7.14538 12.9688 6.68 12.7184C6.68 12.7288 6.68 12.7423 6.68 12.7558C6.68 14.4125 7.88806 15.7886 9.47225 16.1056C9.18856 16.1815 8.87937 16.2179 8.5585 16.2179C8.33538 16.2179 8.11012 16.2054 7.89869 16.1597C8.35025 17.5098 9.63163 18.5024 11.1553 18.5346C9.9695 19.4419 8.46394 19.9886 6.83406 19.9886C6.54825 19.9886 6.27412 19.9762 6 19.9419C7.54381 20.9157 9.37344 21.4718 11.3465 21.4718C17.7597 21.4718 21.266 16.275 21.266 11.7705C21.266 11.6198 21.2607 11.4743 21.2533 11.3298C21.9449 10.8496 22.5261 10.2499 23 9.55977Z" fill="white"/>
</svg>
